<svg id="visual" viewBox="0 0 900 600" width="900" height="600" xmlns="http://www.w3.org/2000/svg" xmlns:xlink="http://www.w3.org/1999/xlink" version="1.1"><path d="M0 49L75 55L150 103L225 43L300 103L375 73L450 97L525 61L600 85L675 103L750 79L825 85L900 85L900 0L825 0L750 0L675 0L600 0L525 0L450 0L375 0L300 0L225 0L150 0L75 0L0 0Z" fill="#00cc8e"></path><path d="M0 187L75 217L150 355L225 295L300 187L375 301L450 259L525 259L600 283L675 241L750 289L825 295L900 217L900 83L825 83L750 77L675 101L600 83L525 59L450 95L375 71L300 101L225 41L150 101L75 53L0 47Z" fill="#00b98a"></path><path d="M0 289L75 301L150 409L225 349L300 241L375 385L450 325L525 361L600 391L675 295L750 403L825 367L900 307L900 215L825 293L750 287L675 239L600 281L525 257L450 257L375 299L300 185L225 293L150 353L75 215L0 185Z" fill="#00a784"></path><path d="M0 439L75 511L150 517L225 541L300 445L375 505L450 517L525 487L600 535L675 457L750 469L825 481L900 547L900 305L825 365L750 401L675 293L600 389L525 359L450 323L375 383L300 239L225 347L150 407L75 299L0 287Z" fill="#00957c"></path><path d="M0 601L75 601L150 601L225 601L300 601L375 601L450 601L525 601L600 601L675 601L750 601L825 601L900 601L900 545L825 479L750 467L675 455L600 533L525 485L450 515L375 503L300 443L225 539L150 515L75 509L0 437Z" fill="#038373"></path></svg>